<?xml version="1.0" encoding="UTF-8"?>
<svg id="Layer_1" data-name="Layer 1" xmlns="http://www.w3.org/2000/svg" width="208.1382" height="302.6913" viewBox="0 0 208.1382 302.6913">
  <defs>
    <style>
      .cls-1 {
        fill: #4363ed;
      }

      .cls-2 {
        fill: #12256e;
      }
    </style>
  </defs>
  <path class="cls-2" d="M23.5865,179.1028c-3.6619-1.248-6.9446-3.5015-9.8621-6.4501-2.9172-2.9537-5.3845-6.4579-7.4174-10.3419-2.0333-3.8887-3.587-8.0864-4.6763-12.6266-1.0898-4.5466-1.6299-9.3093-1.6309-14.585.0001-5.5503.5802-10.4749,1.7463-15.0923,1.1653-4.6105,2.7476-8.8309,4.755-12.6637,2.0083-3.8262,4.3582-7.209,7.0657-9.9711,2.7054-2.7583,5.5778-4.7881,8.6179-5.8518,3.2269-1.1322,6.1583-1.149,8.7771.036,2.619,1.1832,4.8676,3.3373,6.7322,6.4338,1.8645,3.0956,3.3059,6.9843,4.3185,11.5908,1.0121,4.6074,1.5197,9.6572,1.5192,15.043-.0001,5.1028-.4318,9.5034-1.2932,13.1384-.8625,3.6373-2.0579,6.5831-3.5841,8.8177-1.5265,2.2378-3.3351,3.792-5.4205,4.6786-2.0858.8892-4.3397,1.1577-6.7549.8627-1.8247-.2228-3.5825-.8646-5.2734-1.8763-1.6908-1.0111-3.1283-2.2401-4.3182-3.6656-.1326.1794-.217.4216-.2574.7285-.0399.3088-.0597.5801-.0594.8208.0005.7189.2905,1.4633.8726,2.2454.5815.7822,1.3374,1.5276,2.2666,2.234.9293.7086,1.9943,1.3473,3.1956,1.9113,1.2015.5637,2.4064.9421,3.614,1.1198,1.6641.2452,3.1873.2347,4.5642-.0437,1.3776-.278,2.6168-.6998,3.7161-1.2676,1.0997-.5647,2.0577-1.2334,2.8744-1.9954.8165-.7611,1.4984-1.5219,2.0442-2.2698.3549.6448.661,1.5864.9214,2.8242.2596,1.2386.485,2.6058.6763,4.0996.1903,1.4955.3346,3.0316.4303,4.6068.0955,1.5762.1436,3.0183.1438,4.3269-.0011,1.3094-.0345,2.5419-.1028,3.6964-.0688,1.1554-.1575,2.1488-.2665,2.9819-.8757,1.3815-1.8303,2.6544-2.8661,3.8092-1.0361,1.1562-2.2607,2.0732-3.6719,2.7388-1.4115.6646-3.0433,1.0417-4.8911,1.114-1.8477.0725-4.0193-.3103-6.505-1.1578ZM23.0654,127.4247c.6681-.0402,1.1683-.3356,1.5042-.8972.3345-.5601.5012-1.2798.5018-2.1562-.0001-1.0292-.1949-1.7335-.5823-2.1066-.3875-.3722-.8506-.5302-1.3835-.4736-.7472.0775-1.3402.5336-1.7803,1.3512-.4388.8198-.7115,1.8743-.8184,3.1726.2649.2791.6121.5425,1.0383.7888.4266.2494.9315.3561,1.5201.321Z"/>
  <path class="cls-2" d="M145.5663,172.6061c-.3191.5973-.698,1.2269-1.1368,1.8951-.4393.6674-.9667,1.3051-1.5803,1.9099-.6144.6063-1.3363,1.1847-2.1655,1.7345-.8314.5497-1.7955,1.0004-2.8988,1.3372-1.2108.3696-2.4637.5295-3.7611.4589-1.2983-.0697-2.5642-.4835-3.8-1.2581-1.2355-.7739-2.4142-1.9688-3.5305-3.597-1.118-1.627-2.0951-3.7871-2.9288-6.475-.8345-2.6873-1.4978-5.9521-1.991-9.7762-.4934-3.8246-.7402-8.3466-.7406-13.53v-21.681c-.5756-2.1573-1.069-4.6576-1.4812-7.5-.412-2.8396-.618-6.0701-.6182-9.6731-.0002-1.5691.0491-3.1868.1444-4.8595.0969-1.67.2407-3.3173.433-4.9407.1914-1.6222.4385-3.1884.7408-4.6942.3018-1.5068.6716-2.8784,1.1101-4.1138,3.015.6046,6.0177,1.2838,9.0046,2.038,1.5736.3971,3.0231,1.1566,4.3459,2.239,1.3224,1.0824,2.4545,2.526,3.3951,4.2975.9412,1.7743,1.6711,3.8712,2.1943,6.2921.5227,2.4221.7832,5.2053.7834,8.3853v24.9368c.0004,2.8746.141,4.8344.4211,5.8661.2815,1.0341.6353,1.5323,1.0627,1.5042.2666-.017.4736-.1071.6207-.2679.1456-.1603.2867-.3451.4198-.5552-.1337-.848-.2333-1.8749-.3002-3.0836-.0665-1.2081-.0997-2.7721-.0997-4.6903v-37.4006c.5068-.4019,1.0732-.7922,1.6987-1.1616.6248-.3696,1.3489-.6328,2.1708-.7847.821-.1523,1.7407-.179,2.7577-.0803,1.0151.0979,2.1797.4153,3.4915.9481,2.2815.9282,4.2312,2.312,5.8646,4.0216,1.6321,1.7136,2.8542,3.458,3.6766,5.2246v32.0509c.0002,2.8306.1924,5.2507.5781,7.2112.385,1.9624,1.1155,3.3604,2.1885,4.1599.0253.3109.038.6915.0381,1.1444v1.0337c.0009,2.9926-.2623,5.6432-.7855,8.0197-.5247,2.3757-1.2488,4.4875-2.1733,6.3324-.9265,1.8442-2.0269,3.4324-3.3093,4.7236-1.2816,1.2889-2.6788,2.2836-4.1934,2.9221-1.9333.8151-3.7407.7653-5.4158-.2511-1.6768-1.0138-2.9431-3.1229-3.792-6.2975-.9033.2427-1.3574,1.1841-1.3566,2.8324.0002.5483.0803,1.1003.2395,1.6495.1598.5485.3859,1.0519.6783,1.5029Z"/>
  <path class="cls-1" d="M93.0963,295.6184c.0205-1.2131-1.5453-1.7251-2.4641-2.1842-6.4911-3.2426-13.8541-3.3553-20.9822-3.3945-.3215-23.4956-.0903-53.1755-.1934-76.5995,0,0,3.7504-24.4531,3.7504-24.4645-8.8274,5.3825-16.7935,7.7509-22.3914-.8612,0,0-1.6271,15.722-2.7598,19.5723-2.0859,7.09-.3106,19.6565.2701,27.4304,1.3393,17.9301,1.6654,41.9624,5.06,59.4635.2509,1.2937,1.3038,6.9742,2.3678,7.3085.4358.1368,3.286.3783,4.0395.4264,6.5785.4203,22.8236.9312,28.5696-1.1936,1.4861-.5494,1.0882-1.4854,3.6169-.2932,1.147-1.1484-5.027-3.9939-5.9503-4.0962l3.1761-1.4678,3.8909.3536Z"/>
  <path class="cls-1" d="M137.6418,288.7271c.0205-1.2131-1.4912-1.8548-2.4641-2.1842-6.9782-2.3627-13.8541-3.3554-20.9822-3.3946-3.8776-23.4447-4.3248-47.2301,1.8066-70.5994,0,0,4.5534-29.5631,2.7444-29.6529-4.2225,10.5562-15.7875,12.9392-21.3854,4.3271,0,0-1.6271,15.722-2.7598,19.5723-2.0859,7.09-.3557,32.0462.2249,39.8202,1.3393,17.9301-.2894,23.5727,3.1052,41.0738.2509,1.2937,1.3038,6.9742,2.3678,7.3085.4358.1368,3.286.3783,4.0395.4264,6.5785.4203,22.8236.9312,28.5696-1.1936,1.4861-.5494,1.0882-1.4854,3.6169-.2932,1.147-1.1484-5.027-3.9939-5.9503-4.0962l3.1761-1.4678,3.8909.3536Z"/>
  <path class="cls-1" d="M207.0641,31.7211c-1.936-1.8565-7.0549-4.5063-9.6072-5.8751-.8524-.4572-4.7958-1.9744-5.0852-2.2985-.5022-.5622-2.2629-5.6831-3.5293-7.4498-7.675-10.7068-25.2544-20.2318-38.3193-14.2448-3.6605,1.6775-1.5715,2.7601,1.4358,2.8773-2.3137,1.3165-5.0757,1.8109-7.4423,2.9992-1.0424.5234-6.7245,3.7231-4.4586,5.3049l3.9789.1545c-4.726,1.4968-11.953,9.55-1.4377,5.4089-1.3492,1.9733-5.1613,4.314-4.6908,7.0067.3152,1.8041,2.4177.2219,3.6084.1921.3099,2.9541-.2544,5.9554-.3726,8.8052-.4584,11.056-1.0188,22.1218-1.4402,33.1251-.2229,5.8212.8318,15.8686,1.4492,19.5732,10.1143-.3737,16.6711.4116,22.4341,10.1879.5145-11.217.026-19.8686-.3088-25.6241-.578-9.938-.2764-17.5217.9275-27.3425,5.7378.1396,11.4926-.0145,17.0725-1.4702,2.9712-.7751,5.976-2.0503,8.8518-3.0299,6.0548-2.0624,12.011-4.4355,17.9988-6.6697.1095-.1382-.7917-1.3685-1.0649-1.6305ZM173.9232,24.2491c-3.8638-2.829-9.1653-1.4642-11.0354,2.8454-1.2117-.584.0551-2.9289.5229-3.6802,3.7346-5.9956,13.47-3.06,13.1866,4.1236l-2.6742-3.2888Z"/>
  <path class="cls-2" d="M58.6261,85.7972c1.1624-.1549,2.1375.1786,2.9283.9958.7888.8174,1.4905,1.8967,2.1003,3.2355-1.2207,2.6068-1.8303,4.7179-1.8303,6.3501-.0005.7251.1108,1.3657.333,1.9224.2214.5576.5955.8142,1.1229.7736.5551-2.1652,1.2491-4.2272,2.0812-6.1851.833-1.9546,1.8184-3.7,2.9591-5.2253,1.1388-1.5244,2.4398-2.7683,3.9009-3.7188,1.4613-.9485,3.0966-1.4656,4.908-1.5273,1.3927-.0475,2.6808.2963,3.8665,1.025,1.1844.7288,2.2509,1.689,3.1982,2.8685.9474,1.1826,1.7557,2.4778,2.4252,3.882.6681,1.4037,1.1981,2.7928,1.5881,4.1616.6696-1.9659,1.4484-3.6932,2.3403-5.1785.8917-1.483,1.8453-2.6927,2.8612-3.6263,1.0159-.9331,2.0808-1.6052,3.1932-2.0176,1.1125-.4109,2.2102-.5645,3.2943-.4662,2.5559.2345,4.8096,1.38,6.7611,3.3647,1.9524,1.9877,3.5894,4.7035,4.9138,8.1053,1.3267,3.4052,2.3313,7.4198,3.02,12.0439.6881,4.6255,1.0319,9.7576,1.032,15.439.0004,2.6368-.027,5.5048-.0819,8.6108-.0548,3.1067-.0831,6.0647-.0833,8.8798.0005,4.045.208,7.4562.6194,10.2111.413,2.7566,1.1981,4.8499,2.3506,6.2595.0271.4612.041.9536.0408,1.4741-.0002.521-.0002.9558,0,1.3037,0,4.1156-.3093,7.7836-.9272,11.0365-.619,3.2542-1.4501,6.0488-2.4957,8.3795-1.0466,2.3315-2.2727,4.167-3.6813,5.4767-1.4078,1.3092-2.9008,2.0802-4.4789,2.2849-1.6616.2156-3.2483-.0847-4.761-.9064-1.5135-.8206-2.8468-2.3281-4-4.5135-1.1544-2.1853-2.0724-5.113-2.7538-8.7723-.6816-3.6593-1.0227-8.2067-1.0227-13.6263v-29.1908c.0005-4.1254-.6121-6.1976-1.8373-6.2136-.1953-.0012-.4038.0737-.6265.2246-.2236.1519-.3906.3193-.5011.5039.2507,4.6041.501,9.2052.7517,13.8035v20.9254c-.0005,4.0131.1387,7.6049.4176,10.7734.2783,3.1689.7659,5.9114,1.4617,8.2191-1.3639,3.2687-3.0419,5.8158-5.0338,7.6063-1.9919,1.7893-4.0071,2.6892-6.0406,2.6846-1.4778-.0028-2.8845-.4279-4.2224-1.2639-1.3374-.8357-2.5225-2.2722-3.552-4.2899-1.0308-2.0182-1.8452-4.7079-2.4434-8.0614-.5985-3.3528-.8976-7.5168-.8976-12.5034v-32.4049c-.0005-4.1249-.6118-6.1786-1.8362-6.1565-.1953.0029-.4033.0842-.6256.2415-.2228.1576-.3895.3282-.5005.5143.2504,4.5624.5004,9.1302.7507,13.7028v24.394c.0001,3.313.0753,6.2166.2296,8.7103.1527,2.4933.4933,4.9225,1.0222,7.2877-1.2244,2.7585-2.8162,4.9092-4.7745,6.4097-1.9578,1.5032-4.1853,2.0916-6.6759,1.7638-1.3016-.1703-2.5934-.7472-3.8774-1.7118-1.2842-.9651-2.4355-2.3315-3.4542-4.0774-1.0194-1.749-1.8444-3.8516-2.4767-6.3046-.6333-2.4532-.948-5.2943-.9478-8.545v-41.6293c-.8242-2.4009-1.4351-5.1052-1.8318-8.1271-.3966-3.0206-.597-6.1866-.5964-9.5219.0001-2.7595.1998-5.8303.5964-9.2366.396-3.4047,1.0085-6.4891,1.8318-9.2565,3.3097-.6199,6.6337-1.1501,9.9675-1.5908Z"/>
</svg>